<?xml version="1.0" encoding="UTF-8" standalone="yes"?>
<svg width="1440" height="590" viewBox="0 0 1440 590" fill="none" xmlns="http://www.w3.org/2000/svg">
  <mask id="mask0" mask-type="alpha" maskUnits="userSpaceOnUse" x="-1" y="0" width="1441" height="590">
    <rect x="-0.0976562" width="1440.1" height="590" fill="#C4C4C4"/>
  </mask>
  <g mask="url(#mask0)">
    <path d="M1440.86 -188.06H0.0185547V710.306H1440.86V-188.06Z" fill="url(#paint0_linear)"/>
    <path opacity="0.4" d="M727.652 96.3026C739.917 96.3026 749.859 86.4894 749.859 74.3842C749.859 62.279 739.917 52.4658 727.652 52.4658C715.388 52.4658 705.445 62.279 705.445 74.3842C705.445 86.4894 715.388 96.3026 727.652 96.3026Z" fill="#A02828"/>
    <path d="M1233.51 141.581C1261.86 141.581 1284.84 118.727 1284.84 90.5346C1284.84 62.3422 1261.86 39.4878 1233.51 39.4878C1205.15 39.4878 1182.17 62.3422 1182.17 90.5346C1182.17 118.727 1205.15 141.581 1233.51 141.581Z" fill="#A02828"/>
    <path opacity="0.3" d="M1387.22 740.301C1636.49 740.301 1838.57 539.388 1838.57 291.55C1838.57 43.7122 1636.49 -157.2 1387.22 -157.2C1137.95 -157.2 935.877 43.7122 935.877 291.55C935.877 539.388 1137.95 740.301 1387.22 740.301Z" fill="#A02828"/>
    <path opacity="0.9" d="M942.222 164.077L601.045 273.669L525.195 622.633L790.523 862.294L1131.7 752.702L1207.55 403.738L942.222 164.077ZM1039.12 669.066L817.056 740.3L644.305 584.276L693.621 357.017L915.689 285.782L1002.06 363.794L1088.44 441.806L1039.12 669.066Z" fill="url(#paint1_linear)"/>
    <path opacity="0.4" d="M161.523 576.777C323.191 576.777 454.249 446.494 454.249 285.781C454.249 125.069 323.191 -5.21436 161.523 -5.21436C-0.145493 -5.21436 -131.203 125.069 -131.203 285.781C-131.203 446.494 -0.145493 576.777 161.523 576.777Z" fill="#A02828"/>
    <path opacity="0.4" d="M53.6612 511.887C172.324 511.887 268.519 416.209 268.519 298.183C268.519 180.157 172.324 84.4785 53.6612 84.4785C-65.0016 84.4785 -161.197 180.157 -161.197 298.183C-161.197 416.209 -65.0016 511.887 53.6612 511.887Z" fill="#A02828"/>
    <path opacity="0.2" d="M457.421 160.905C548.21 160.905 621.809 87.6931 621.809 -2.61807C621.809 -92.9292 548.21 -166.141 457.421 -166.141C366.632 -166.141 293.033 -92.9292 293.033 -2.61807C293.033 87.6931 366.632 160.905 457.421 160.905Z" fill="#A02828"/>
    <path opacity="0.2" d="M86.8272 902.957C393.917 902.957 642.862 655.432 642.862 350.095C642.862 44.7568 393.917 -202.768 86.8272 -202.768C-220.263 -202.768 -469.208 44.7568 -469.208 350.095C-469.208 655.432 -220.263 902.957 86.8272 902.957Z" fill="#A02828"/>
    <path d="M372.92 896.901V366.822L374.939 367.975L833.495 631.861L831.476 633.015L372.92 896.901ZM375.804 371.725V891.998L827.727 631.861L375.804 371.725Z" fill="#BA1A24"/>
    <g opacity="0.7">
      <path opacity="0.7" d="M878.773 554.57C880.366 554.57 881.657 553.279 881.657 551.686C881.657 550.094 880.366 548.802 878.773 548.802C877.18 548.802 875.889 550.094 875.889 551.686C875.889 553.279 877.18 554.57 878.773 554.57Z" fill="#A02828"/>
      <path opacity="0.7" d="M878.773 581.968C880.366 581.968 881.657 580.677 881.657 579.084C881.657 577.492 880.366 576.2 878.773 576.2C877.18 576.2 875.889 577.492 875.889 579.084C875.889 580.677 877.18 581.968 878.773 581.968Z" fill="#A02828"/>
      <path opacity="0.7" d="M899.826 554.57C901.419 554.57 902.71 553.279 902.71 551.686C902.71 550.094 901.419 548.802 899.826 548.802C898.234 548.802 896.942 550.094 896.942 551.686C896.942 553.279 898.234 554.57 899.826 554.57Z" fill="#A02828"/>
      <path opacity="0.7" d="M899.826 581.968C901.419 581.968 902.71 580.677 902.71 579.084C902.71 577.492 901.419 576.2 899.826 576.2C898.234 576.2 896.942 577.492 896.942 579.084C896.942 580.677 898.234 581.968 899.826 581.968Z" fill="#A02828"/>
      <path opacity="0.7" d="M936.742 554.57C938.335 554.57 939.626 553.279 939.626 551.686C939.626 550.094 938.335 548.802 936.742 548.802C935.149 548.802 933.858 550.094 933.858 551.686C933.858 553.279 935.149 554.57 936.742 554.57Z" fill="#A02828"/>
      <path opacity="0.7" d="M936.742 581.968C938.335 581.968 939.626 580.677 939.626 579.084C939.626 577.492 938.335 576.2 936.742 576.2C935.149 576.2 933.858 577.492 933.858 579.084C933.858 580.677 935.149 581.968 936.742 581.968Z" fill="#A02828"/>
      <path opacity="0.7" d="M958.083 554.57C959.676 554.57 960.967 553.279 960.967 551.686C960.967 550.094 959.676 548.802 958.083 548.802C956.49 548.802 955.199 550.094 955.199 551.686C955.199 553.279 956.49 554.57 958.083 554.57Z" fill="#A02828"/>
      <path opacity="0.7" d="M958.083 581.968C959.676 581.968 960.967 580.677 960.967 579.084C960.967 577.492 959.676 576.2 958.083 576.2C956.49 576.2 955.199 577.492 955.199 579.084C955.199 580.677 956.49 581.968 958.083 581.968Z" fill="#A02828"/>
      <path opacity="0.7" d="M994.999 554.57C996.591 554.57 997.883 553.279 997.883 551.686C997.883 550.094 996.591 548.802 994.999 548.802C993.406 548.802 992.115 550.094 992.115 551.686C992.115 553.279 993.406 554.57 994.999 554.57Z" fill="#A02828"/>
      <path opacity="0.7" d="M994.999 581.968C996.591 581.968 997.883 580.677 997.883 579.084C997.883 577.492 996.591 576.2 994.999 576.2C993.406 576.2 992.115 577.492 992.115 579.084C992.115 580.677 993.406 581.968 994.999 581.968Z" fill="#A02828"/>
      <path opacity="0.7" d="M1016.05 554.57C1017.64 554.57 1018.94 553.279 1018.94 551.686C1018.94 550.094 1017.64 548.802 1016.05 548.802C1014.46 548.802 1013.17 550.094 1013.17 551.686C1013.17 553.279 1014.46 554.57 1016.05 554.57Z" fill="#A02828"/>
      <path opacity="0.7" d="M1016.05 581.968C1017.64 581.968 1018.94 580.677 1018.94 579.084C1018.94 577.492 1017.64 576.2 1016.05 576.2C1014.46 576.2 1013.17 577.492 1013.17 579.084C1013.17 580.677 1014.46 581.968 1016.05 581.968Z" fill="#A02828"/>
      <path opacity="0.7" d="M1052.97 554.57C1054.56 554.57 1055.85 553.279 1055.85 551.686C1055.85 550.094 1054.56 548.802 1052.97 548.802C1051.37 548.802 1050.08 550.094 1050.08 551.686C1050.08 553.279 1051.37 554.57 1052.97 554.57Z" fill="#A02828"/>
      <path opacity="0.7" d="M1052.97 581.968C1054.56 581.968 1055.85 580.677 1055.85 579.084C1055.85 577.492 1054.56 576.2 1052.97 576.2C1051.37 576.2 1050.08 577.492 1050.08 579.084C1050.08 580.677 1051.37 581.968 1052.97 581.968Z" fill="#A02828"/>
      <path opacity="0.7" d="M1074.02 554.57C1075.61 554.57 1076.9 553.279 1076.9 551.686C1076.9 550.094 1075.61 548.802 1074.02 548.802C1072.43 548.802 1071.14 550.094 1071.14 551.686C1071.14 553.279 1072.43 554.57 1074.02 554.57Z" fill="#A02828"/>
      <path opacity="0.7" d="M1074.02 581.968C1075.61 581.968 1076.9 580.677 1076.9 579.084C1076.9 577.492 1075.61 576.2 1074.02 576.2C1072.43 576.2 1071.14 577.492 1071.14 579.084C1071.14 580.677 1072.43 581.968 1074.02 581.968Z" fill="#A02828"/>
      <path opacity="0.7" d="M1111.22 554.57C1112.82 554.57 1114.11 553.279 1114.11 551.686C1114.11 550.094 1112.82 548.802 1111.22 548.802C1109.63 548.802 1108.34 550.094 1108.34 551.686C1108.34 553.279 1109.63 554.57 1111.22 554.57Z" fill="#A02828"/>
      <path opacity="0.7" d="M1111.22 581.968C1112.82 581.968 1114.11 580.677 1114.11 579.084C1114.11 577.492 1112.82 576.2 1111.22 576.2C1109.63 576.2 1108.34 577.492 1108.34 579.084C1108.34 580.677 1109.63 581.968 1111.22 581.968Z" fill="#A02828"/>
      <path opacity="0.7" d="M1132.28 554.57C1133.87 554.57 1135.16 553.279 1135.16 551.686C1135.16 550.094 1133.87 548.802 1132.28 548.802C1130.68 548.802 1129.39 550.094 1129.39 551.686C1129.39 553.279 1130.68 554.57 1132.28 554.57Z" fill="#A02828"/>
      <path opacity="0.7" d="M1132.28 581.968C1133.87 581.968 1135.16 580.677 1135.16 579.084C1135.16 577.492 1133.87 576.2 1132.28 576.2C1130.68 576.2 1129.39 577.492 1129.39 579.084C1129.39 580.677 1130.68 581.968 1132.28 581.968Z" fill="#A02828"/>
      <path opacity="0.7" d="M1169.19 554.57C1170.79 554.57 1172.08 553.279 1172.08 551.686C1172.08 550.094 1170.79 548.802 1169.19 548.802C1167.6 548.802 1166.31 550.094 1166.31 551.686C1166.31 553.279 1167.6 554.57 1169.19 554.57Z" fill="#A02828"/>
      <path opacity="0.7" d="M1169.19 581.968C1170.79 581.968 1172.08 580.677 1172.08 579.084C1172.08 577.492 1170.79 576.2 1169.19 576.2C1167.6 576.2 1166.31 577.492 1166.31 579.084C1166.31 580.677 1167.6 581.968 1169.19 581.968Z" fill="#A02828"/>
      <path opacity="0.7" d="M1190.25 554.57C1191.84 554.57 1193.13 553.279 1193.13 551.686C1193.13 550.094 1191.84 548.802 1190.25 548.802C1188.65 548.802 1187.36 550.094 1187.36 551.686C1187.36 553.279 1188.65 554.57 1190.25 554.57Z" fill="#A02828"/>
      <path opacity="0.7" d="M1190.25 581.968C1191.84 581.968 1193.13 580.677 1193.13 579.084C1193.13 577.492 1191.84 576.2 1190.25 576.2C1188.65 576.2 1187.36 577.492 1187.36 579.084C1187.36 580.677 1188.65 581.968 1190.25 581.968Z" fill="#A02828"/>
      <path opacity="0.7" d="M1227.16 554.57C1228.75 554.57 1230.04 553.279 1230.04 551.686C1230.04 550.094 1228.75 548.802 1227.16 548.802C1225.57 548.802 1224.28 550.094 1224.28 551.686C1224.28 553.279 1225.57 554.57 1227.16 554.57Z" fill="#A02828"/>
      <path opacity="0.7" d="M1227.16 581.968C1228.75 581.968 1230.04 580.677 1230.04 579.084C1230.04 577.492 1228.75 576.2 1227.16 576.2C1225.57 576.2 1224.28 577.492 1224.28 579.084C1224.28 580.677 1225.57 581.968 1227.16 581.968Z" fill="#A02828"/>
      <path opacity="0.7" d="M1248.5 554.57C1250.1 554.57 1251.39 553.279 1251.39 551.686C1251.39 550.094 1250.1 548.802 1248.5 548.802C1246.91 548.802 1245.62 550.094 1245.62 551.686C1245.62 553.279 1246.91 554.57 1248.5 554.57Z" fill="#A02828"/>
      <path opacity="0.7" d="M1248.5 581.968C1250.1 581.968 1251.39 580.677 1251.39 579.084C1251.39 577.492 1250.1 576.2 1248.5 576.2C1246.91 576.2 1245.62 577.492 1245.62 579.084C1245.62 580.677 1246.91 581.968 1248.5 581.968Z" fill="#A02828"/>
      <path opacity="0.7" d="M1285.42 554.57C1287.01 554.57 1288.3 553.279 1288.3 551.686C1288.3 550.094 1287.01 548.802 1285.42 548.802C1283.82 548.802 1282.53 550.094 1282.53 551.686C1282.53 553.279 1283.82 554.57 1285.42 554.57Z" fill="#A02828"/>
      <path opacity="0.7" d="M1285.42 581.968C1287.01 581.968 1288.3 580.677 1288.3 579.084C1288.3 577.492 1287.01 576.2 1285.42 576.2C1283.82 576.2 1282.53 577.492 1282.53 579.084C1282.53 580.677 1283.82 581.968 1285.42 581.968Z" fill="#A02828"/>
      <path opacity="0.7" d="M1306.47 554.57C1308.06 554.57 1309.35 553.279 1309.35 551.686C1309.35 550.094 1308.06 548.802 1306.47 548.802C1304.88 548.802 1303.59 550.094 1303.59 551.686C1303.59 553.279 1304.88 554.57 1306.47 554.57Z" fill="#A02828"/>
      <path opacity="0.7" d="M1306.47 581.968C1308.06 581.968 1309.35 580.677 1309.35 579.084C1309.35 577.492 1308.06 576.2 1306.47 576.2C1304.88 576.2 1303.59 577.492 1303.59 579.084C1303.59 580.677 1304.88 581.968 1306.47 581.968Z" fill="#A02828"/>
      <path opacity="0.7" d="M1343.39 554.57C1344.98 554.57 1346.27 553.279 1346.27 551.686C1346.27 550.094 1344.98 548.802 1343.39 548.802C1341.79 548.802 1340.5 550.094 1340.5 551.686C1340.5 553.279 1341.79 554.57 1343.39 554.57Z" fill="#A02828"/>
      <path opacity="0.7" d="M1343.39 581.968C1344.98 581.968 1346.27 580.677 1346.27 579.084C1346.27 577.492 1344.98 576.2 1343.39 576.2C1341.79 576.2 1340.5 577.492 1340.5 579.084C1340.5 580.677 1341.79 581.968 1343.39 581.968Z" fill="#A02828"/>
      <path opacity="0.7" d="M1364.44 554.57C1366.03 554.57 1367.32 553.279 1367.32 551.686C1367.32 550.094 1366.03 548.802 1364.44 548.802C1362.85 548.802 1361.55 550.094 1361.55 551.686C1361.55 553.279 1362.85 554.57 1364.44 554.57Z" fill="#A02828"/>
      <path opacity="0.7" d="M1364.44 581.968C1366.03 581.968 1367.32 580.677 1367.32 579.084C1367.32 577.492 1366.03 576.2 1364.44 576.2C1362.85 576.2 1361.55 577.492 1361.55 579.084C1361.55 580.677 1362.85 581.968 1364.44 581.968Z" fill="#A02828"/>
      <path opacity="0.7" d="M1401.64 554.57C1403.23 554.57 1404.53 553.279 1404.53 551.686C1404.53 550.094 1403.23 548.802 1401.64 548.802C1400.05 548.802 1398.76 550.094 1398.76 551.686C1398.76 553.279 1400.05 554.57 1401.64 554.57Z" fill="#A02828"/>
      <path opacity="0.7" d="M1401.64 581.968C1403.23 581.968 1404.53 580.677 1404.53 579.084C1404.53 577.492 1403.23 576.2 1401.64 576.2C1400.05 576.2 1398.76 577.492 1398.76 579.084C1398.76 580.677 1400.05 581.968 1401.64 581.968Z" fill="#A02828"/>
      <path opacity="0.7" d="M1422.7 554.57C1424.29 554.57 1425.58 553.279 1425.58 551.686C1425.58 550.094 1424.29 548.802 1422.7 548.802C1421.1 548.802 1419.81 550.094 1419.81 551.686C1419.81 553.279 1421.1 554.57 1422.7 554.57Z" fill="#A02828"/>
      <path opacity="0.7" d="M1422.7 581.968C1424.29 581.968 1425.58 580.677 1425.58 579.084C1425.58 577.492 1424.29 576.2 1422.7 576.2C1421.1 576.2 1419.81 577.492 1419.81 579.084C1419.81 580.677 1421.1 581.968 1422.7 581.968Z" fill="#A02828"/>
    </g>
    <g opacity="0.5">
      <g opacity="0.5">
        <path opacity="0.5" d="M18.7647 15.5512C21.1539 15.5512 23.0907 13.6144 23.0907 11.2252C23.0907 8.83599 21.1539 6.89917 18.7647 6.89917C16.3755 6.89917 14.4387 8.83599 14.4387 11.2252C14.4387 13.6144 16.3755 15.5512 18.7647 15.5512Z" fill="#BF3F55"/>
        <path opacity="0.5" d="M18.7647 67.463C21.1539 67.463 23.0907 65.5262 23.0907 63.137C23.0907 60.7479 21.1539 58.811 18.7647 58.811C16.3755 58.811 14.4387 60.7479 14.4387 63.137C14.4387 65.5262 16.3755 67.463 18.7647 67.463Z" fill="#BF3F55"/>
        <path opacity="0.5" d="M18.7647 41.5072C21.1539 41.5072 23.0907 39.5704 23.0907 37.1812C23.0907 34.792 21.1539 32.8552 18.7647 32.8552C16.3755 32.8552 14.4387 34.792 14.4387 37.1812C14.4387 39.5704 16.3755 41.5072 18.7647 41.5072Z" fill="#BF3F55"/>
        <path opacity="0.5" d="M18.7647 119.375C21.1539 119.375 23.0907 117.438 23.0907 115.049C23.0907 112.66 21.1539 110.723 18.7647 110.723C16.3755 110.723 14.4387 112.66 14.4387 115.049C14.4387 117.438 16.3755 119.375 18.7647 119.375Z" fill="#BF3F55"/>
        <path opacity="0.5" d="M18.7647 93.4191C21.1539 93.4191 23.0907 91.4823 23.0907 89.0931C23.0907 86.7039 21.1539 84.7671 18.7647 84.7671C16.3755 84.7671 14.4387 86.7039 14.4387 89.0931C14.4387 91.4823 16.3755 93.4191 18.7647 93.4191Z" fill="#BF3F55"/>
        <path opacity="0.5" d="M18.7647 171.287C21.1539 171.287 23.0907 169.35 23.0907 166.961C23.0907 164.572 21.1539 162.635 18.7647 162.635C16.3755 162.635 14.4387 164.572 14.4387 166.961C14.4387 169.35 16.3755 171.287 18.7647 171.287Z" fill="#BF3F55"/>
        <path opacity="0.5" d="M18.7647 145.331C21.1539 145.331 23.0907 143.394 23.0907 141.005C23.0907 138.616 21.1539 136.679 18.7647 136.679C16.3755 136.679 14.4387 138.616 14.4387 141.005C14.4387 143.394 16.3755 145.331 18.7647 145.331Z" fill="#BF3F55"/>
        <path opacity="0.5" d="M18.7647 223.199C21.1539 223.199 23.0907 221.262 23.0907 218.873C23.0907 216.484 21.1539 214.547 18.7647 214.547C16.3755 214.547 14.4387 216.484 14.4387 218.873C14.4387 221.262 16.3755 223.199 18.7647 223.199Z" fill="#BF3F55"/>
        <path opacity="0.5" d="M18.7647 197.243C21.1539 197.243 23.0907 195.306 23.0907 192.917C23.0907 190.528 21.1539 188.591 18.7647 188.591C16.3755 188.591 14.4387 190.528 14.4387 192.917C14.4387 195.306 16.3755 197.243 18.7647 197.243Z" fill="#BF3F55"/>
        <path opacity="0.5" d="M38.9527 15.5512C41.3419 15.5512 43.2787 13.6144 43.2787 11.2252C43.2787 8.83599 41.3419 6.89917 38.9527 6.89917C36.5635 6.89917 34.6267 8.83599 34.6267 11.2252C34.6267 13.6144 36.5635 15.5512 38.9527 15.5512Z" fill="#BF3F55"/>
        <path opacity="0.5" d="M38.9527 67.463C41.3419 67.463 43.2787 65.5262 43.2787 63.137C43.2787 60.7479 41.3419 58.811 38.9527 58.811C36.5635 58.811 34.6267 60.7479 34.6267 63.137C34.6267 65.5262 36.5635 67.463 38.9527 67.463Z" fill="#BF3F55"/>
        <path opacity="0.5" d="M38.9527 41.5072C41.3419 41.5072 43.2787 39.5704 43.2787 37.1812C43.2787 34.792 41.3419 32.8552 38.9527 32.8552C36.5635 32.8552 34.6267 34.792 34.6267 37.1812C34.6267 39.5704 36.5635 41.5072 38.9527 41.5072Z" fill="#BF3F55"/>
        <path opacity="0.5" d="M38.9527 119.375C41.3419 119.375 43.2787 117.438 43.2787 115.049C43.2787 112.66 41.3419 110.723 38.9527 110.723C36.5635 110.723 34.6267 112.66 34.6267 115.049C34.6267 117.438 36.5635 119.375 38.9527 119.375Z" fill="#BF3F55"/>
        <path opacity="0.5" d="M38.9527 93.4191C41.3419 93.4191 43.2787 91.4823 43.2787 89.0931C43.2787 86.7039 41.3419 84.7671 38.9527 84.7671C36.5635 84.7671 34.6267 86.7039 34.6267 89.0931C34.6267 91.4823 36.5635 93.4191 38.9527 93.4191Z" fill="#BF3F55"/>
        <path opacity="0.5" d="M38.9527 171.287C41.3419 171.287 43.2787 169.35 43.2787 166.961C43.2787 164.572 41.3419 162.635 38.9527 162.635C36.5635 162.635 34.6267 164.572 34.6267 166.961C34.6267 169.35 36.5635 171.287 38.9527 171.287Z" fill="#BF3F55"/>
        <path opacity="0.5" d="M38.9527 145.331C41.3419 145.331 43.2787 143.394 43.2787 141.005C43.2787 138.616 41.3419 136.679 38.9527 136.679C36.5635 136.679 34.6267 138.616 34.6267 141.005C34.6267 143.394 36.5635 145.331 38.9527 145.331Z" fill="#BF3F55"/>
        <path opacity="0.5" d="M38.9527 223.199C41.3419 223.199 43.2787 221.262 43.2787 218.873C43.2787 216.484 41.3419 214.547 38.9527 214.547C36.5635 214.547 34.6267 216.484 34.6267 218.873C34.6267 221.262 36.5635 223.199 38.9527 223.199Z" fill="#BF3F55"/>
        <path opacity="0.5" d="M38.9527 197.243C41.3419 197.243 43.2787 195.306 43.2787 192.917C43.2787 190.528 41.3419 188.591 38.9527 188.591C36.5635 188.591 34.6267 190.528 34.6267 192.917C34.6267 195.306 36.5635 197.243 38.9527 197.243Z" fill="#BF3F55"/>
      </g>
      <g opacity="0.5">
        <path opacity="0.5" d="M73.8494 15.5512C76.2386 15.5512 78.1754 13.6144 78.1754 11.2252C78.1754 8.83599 76.2386 6.89917 73.8494 6.89917C71.4603 6.89917 69.5234 8.83599 69.5234 11.2252C69.5234 13.6144 71.4603 15.5512 73.8494 15.5512Z" fill="#BF3F55"/>
        <path opacity="0.5" d="M73.8494 67.463C76.2386 67.463 78.1754 65.5262 78.1754 63.137C78.1754 60.7479 76.2386 58.811 73.8494 58.811C71.4603 58.811 69.5234 60.7479 69.5234 63.137C69.5234 65.5262 71.4603 67.463 73.8494 67.463Z" fill="#BF3F55"/>
        <path opacity="0.5" d="M73.8494 41.5072C76.2386 41.5072 78.1754 39.5704 78.1754 37.1812C78.1754 34.792 76.2386 32.8552 73.8494 32.8552C71.4603 32.8552 69.5234 34.792 69.5234 37.1812C69.5234 39.5704 71.4603 41.5072 73.8494 41.5072Z" fill="#BF3F55"/>
        <path opacity="0.5" d="M73.8494 119.375C76.2386 119.375 78.1754 117.438 78.1754 115.049C78.1754 112.66 76.2386 110.723 73.8494 110.723C71.4603 110.723 69.5234 112.66 69.5234 115.049C69.5234 117.438 71.4603 119.375 73.8494 119.375Z" fill="#BF3F55"/>
        <path opacity="0.5" d="M73.8494 93.4191C76.2386 93.4191 78.1754 91.4823 78.1754 89.0931C78.1754 86.7039 76.2386 84.7671 73.8494 84.7671C71.4603 84.7671 69.5234 86.7039 69.5234 89.0931C69.5234 91.4823 71.4603 93.4191 73.8494 93.4191Z" fill="#BF3F55"/>
        <path opacity="0.5" d="M73.8494 171.287C76.2386 171.287 78.1754 169.35 78.1754 166.961C78.1754 164.572 76.2386 162.635 73.8494 162.635C71.4603 162.635 69.5234 164.572 69.5234 166.961C69.5234 169.35 71.4603 171.287 73.8494 171.287Z" fill="#BF3F55"/>
        <path opacity="0.5" d="M73.8494 145.331C76.2386 145.331 78.1754 143.394 78.1754 141.005C78.1754 138.616 76.2386 136.679 73.8494 136.679C71.4603 136.679 69.5234 138.616 69.5234 141.005C69.5234 143.394 71.4603 145.331 73.8494 145.331Z" fill="#BF3F55"/>
        <path opacity="0.5" d="M73.8494 223.199C76.2386 223.199 78.1754 221.262 78.1754 218.873C78.1754 216.484 76.2386 214.547 73.8494 214.547C71.4603 214.547 69.5234 216.484 69.5234 218.873C69.5234 221.262 71.4603 223.199 73.8494 223.199Z" fill="#BF3F55"/>
        <path opacity="0.5" d="M73.8494 197.243C76.2386 197.243 78.1754 195.306 78.1754 192.917C78.1754 190.528 76.2386 188.591 73.8494 188.591C71.4603 188.591 69.5234 190.528 69.5234 192.917C69.5234 195.306 71.4603 197.243 73.8494 197.243Z" fill="#BF3F55"/>
        <path opacity="0.5" d="M94.0374 15.5512C96.4266 15.5512 98.3634 13.6144 98.3634 11.2252C98.3634 8.83599 96.4266 6.89917 94.0374 6.89917C91.6482 6.89917 89.7114 8.83599 89.7114 11.2252C89.7114 13.6144 91.6482 15.5512 94.0374 15.5512Z" fill="#BF3F55"/>
        <path opacity="0.5" d="M94.0374 67.463C96.4266 67.463 98.3634 65.5262 98.3634 63.137C98.3634 60.7479 96.4266 58.811 94.0374 58.811C91.6482 58.811 89.7114 60.7479 89.7114 63.137C89.7114 65.5262 91.6482 67.463 94.0374 67.463Z" fill="#BF3F55"/>
        <path opacity="0.5" d="M94.0374 41.5072C96.4266 41.5072 98.3634 39.5704 98.3634 37.1812C98.3634 34.792 96.4266 32.8552 94.0374 32.8552C91.6482 32.8552 89.7114 34.792 89.7114 37.1812C89.7114 39.5704 91.6482 41.5072 94.0374 41.5072Z" fill="#BF3F55"/>
        <path opacity="0.5" d="M94.0374 119.375C96.4266 119.375 98.3634 117.438 98.3634 115.049C98.3634 112.66 96.4266 110.723 94.0374 110.723C91.6482 110.723 89.7114 112.66 89.7114 115.049C89.7114 117.438 91.6482 119.375 94.0374 119.375Z" fill="#BF3F55"/>
        <path opacity="0.5" d="M94.0374 93.4191C96.4266 93.4191 98.3634 91.4823 98.3634 89.0931C98.3634 86.7039 96.4266 84.7671 94.0374 84.7671C91.6482 84.7671 89.7114 86.7039 89.7114 89.0931C89.7114 91.4823 91.6482 93.4191 94.0374 93.4191Z" fill="#BF3F55"/>
        <path opacity="0.5" d="M94.0374 171.287C96.4266 171.287 98.3634 169.35 98.3634 166.961C98.3634 164.572 96.4266 162.635 94.0374 162.635C91.6482 162.635 89.7114 164.572 89.7114 166.961C89.7114 169.35 91.6482 171.287 94.0374 171.287Z" fill="#BF3F55"/>
        <path opacity="0.5" d="M94.0374 145.331C96.4266 145.331 98.3634 143.394 98.3634 141.005C98.3634 138.616 96.4266 136.679 94.0374 136.679C91.6482 136.679 89.7114 138.616 89.7114 141.005C89.7114 143.394 91.6482 145.331 94.0374 145.331Z" fill="#BF3F55"/>
        <path opacity="0.5" d="M94.0374 223.199C96.4266 223.199 98.3634 221.262 98.3634 218.873C98.3634 216.484 96.4266 214.547 94.0374 214.547C91.6482 214.547 89.7114 216.484 89.7114 218.873C89.7114 221.262 91.6482 223.199 94.0374 223.199Z" fill="#BF3F55"/>
        <path opacity="0.5" d="M94.0374 197.243C96.4266 197.243 98.3634 195.306 98.3634 192.917C98.3634 190.528 96.4266 188.591 94.0374 188.591C91.6482 188.591 89.7114 190.528 89.7114 192.917C89.7114 195.306 91.6482 197.243 94.0374 197.243Z" fill="#BF3F55"/>
      </g>
      <g opacity="0.5">
        <path opacity="0.5" d="M128.933 15.5512C131.322 15.5512 133.259 13.6144 133.259 11.2252C133.259 8.83599 131.322 6.89917 128.933 6.89917C126.544 6.89917 124.607 8.83599 124.607 11.2252C124.607 13.6144 126.544 15.5512 128.933 15.5512Z" fill="#BF3F55"/>
        <path opacity="0.5" d="M128.933 67.463C131.322 67.463 133.259 65.5262 133.259 63.137C133.259 60.7479 131.322 58.811 128.933 58.811C126.544 58.811 124.607 60.7479 124.607 63.137C124.607 65.5262 126.544 67.463 128.933 67.463Z" fill="#BF3F55"/>
        <path opacity="0.5" d="M128.933 41.5072C131.322 41.5072 133.259 39.5704 133.259 37.1812C133.259 34.792 131.322 32.8552 128.933 32.8552C126.544 32.8552 124.607 34.792 124.607 37.1812C124.607 39.5704 126.544 41.5072 128.933 41.5072Z" fill="#BF3F55"/>
        <path opacity="0.5" d="M128.933 119.375C131.322 119.375 133.259 117.438 133.259 115.049C133.259 112.66 131.322 110.723 128.933 110.723C126.544 110.723 124.607 112.66 124.607 115.049C124.607 117.438 126.544 119.375 128.933 119.375Z" fill="#BF3F55"/>
        <path opacity="0.5" d="M128.933 93.4191C131.322 93.4191 133.259 91.4823 133.259 89.0931C133.259 86.7039 131.322 84.7671 128.933 84.7671C126.544 84.7671 124.607 86.7039 124.607 89.0931C124.607 91.4823 126.544 93.4191 128.933 93.4191Z" fill="#BF3F55"/>
        <path opacity="0.5" d="M128.933 171.287C131.322 171.287 133.259 169.35 133.259 166.961C133.259 164.572 131.322 162.635 128.933 162.635C126.544 162.635 124.607 164.572 124.607 166.961C124.607 169.35 126.544 171.287 128.933 171.287Z" fill="#BF3F55"/>
        <path opacity="0.5" d="M128.933 145.331C131.322 145.331 133.259 143.394 133.259 141.005C133.259 138.616 131.322 136.679 128.933 136.679C126.544 136.679 124.607 138.616 124.607 141.005C124.607 143.394 126.544 145.331 128.933 145.331Z" fill="#BF3F55"/>
        <path opacity="0.5" d="M128.933 223.199C131.322 223.199 133.259 221.262 133.259 218.873C133.259 216.484 131.322 214.547 128.933 214.547C126.544 214.547 124.607 216.484 124.607 218.873C124.607 221.262 126.544 223.199 128.933 223.199Z" fill="#BF3F55"/>
        <path opacity="0.5" d="M128.933 197.243C131.322 197.243 133.259 195.306 133.259 192.917C133.259 190.528 131.322 188.591 128.933 188.591C126.544 188.591 124.607 190.528 124.607 192.917C124.607 195.306 126.544 197.243 128.933 197.243Z" fill="#BF3F55"/>
        <path opacity="0.5" d="M149.121 15.5512C151.51 15.5512 153.447 13.6144 153.447 11.2252C153.447 8.83599 151.51 6.89917 149.121 6.89917C146.732 6.89917 144.795 8.83599 144.795 11.2252C144.795 13.6144 146.732 15.5512 149.121 15.5512Z" fill="#BF3F55"/>
        <path opacity="0.5" d="M149.121 67.463C151.51 67.463 153.447 65.5262 153.447 63.137C153.447 60.7479 151.51 58.811 149.121 58.811C146.732 58.811 144.795 60.7479 144.795 63.137C144.795 65.5262 146.732 67.463 149.121 67.463Z" fill="#BF3F55"/>
        <path opacity="0.5" d="M149.121 41.5072C151.51 41.5072 153.447 39.5704 153.447 37.1812C153.447 34.792 151.51 32.8552 149.121 32.8552C146.732 32.8552 144.795 34.792 144.795 37.1812C144.795 39.5704 146.732 41.5072 149.121 41.5072Z" fill="#BF3F55"/>
        <path opacity="0.5" d="M149.121 119.375C151.51 119.375 153.447 117.438 153.447 115.049C153.447 112.66 151.51 110.723 149.121 110.723C146.732 110.723 144.795 112.66 144.795 115.049C144.795 117.438 146.732 119.375 149.121 119.375Z" fill="#BF3F55"/>
        <path opacity="0.5" d="M149.121 93.4191C151.51 93.4191 153.447 91.4823 153.447 89.0931C153.447 86.7039 151.51 84.7671 149.121 84.7671C146.732 84.7671 144.795 86.7039 144.795 89.0931C144.795 91.4823 146.732 93.4191 149.121 93.4191Z" fill="#BF3F55"/>
        <path opacity="0.5" d="M149.121 171.287C151.51 171.287 153.447 169.35 153.447 166.961C153.447 164.572 151.51 162.635 149.121 162.635C146.732 162.635 144.795 164.572 144.795 166.961C144.795 169.35 146.732 171.287 149.121 171.287Z" fill="#BF3F55"/>
        <path opacity="0.5" d="M149.121 145.331C151.51 145.331 153.447 143.394 153.447 141.005C153.447 138.616 151.51 136.679 149.121 136.679C146.732 136.679 144.795 138.616 144.795 141.005C144.795 143.394 146.732 145.331 149.121 145.331Z" fill="#BF3F55"/>
        <path opacity="0.5" d="M149.121 223.199C151.51 223.199 153.447 221.262 153.447 218.873C153.447 216.484 151.51 214.547 149.121 214.547C146.732 214.547 144.795 216.484 144.795 218.873C144.795 221.262 146.732 223.199 149.121 223.199Z" fill="#BF3F55"/>
        <path opacity="0.5" d="M149.121 197.243C151.51 197.243 153.447 195.306 153.447 192.917C153.447 190.528 151.51 188.591 149.121 188.591C146.732 188.591 144.795 190.528 144.795 192.917C144.795 195.306 146.732 197.243 149.121 197.243Z" fill="#BF3F55"/>
      </g>
      <g opacity="0.5">
        <path opacity="0.5" d="M184.306 15.5512C186.695 15.5512 188.632 13.6144 188.632 11.2252C188.632 8.83599 186.695 6.89917 184.306 6.89917C181.917 6.89917 179.98 8.83599 179.98 11.2252C179.98 13.6144 181.917 15.5512 184.306 15.5512Z" fill="#BF3F55"/>
        <path opacity="0.5" d="M184.306 67.463C186.695 67.463 188.632 65.5262 188.632 63.137C188.632 60.7479 186.695 58.811 184.306 58.811C181.917 58.811 179.98 60.7479 179.98 63.137C179.98 65.5262 181.917 67.463 184.306 67.463Z" fill="#BF3F55"/>
        <path opacity="0.5" d="M184.306 41.5072C186.695 41.5072 188.632 39.5704 188.632 37.1812C188.632 34.792 186.695 32.8552 184.306 32.8552C181.917 32.8552 179.98 34.792 179.98 37.1812C179.98 39.5704 181.917 41.5072 184.306 41.5072Z" fill="#BF3F55"/>
        <path opacity="0.5" d="M184.306 119.375C186.695 119.375 188.632 117.438 188.632 115.049C188.632 112.66 186.695 110.723 184.306 110.723C181.917 110.723 179.98 112.66 179.98 115.049C179.98 117.438 181.917 119.375 184.306 119.375Z" fill="#BF3F55"/>
        <path opacity="0.5" d="M184.306 93.4191C186.695 93.4191 188.632 91.4823 188.632 89.0931C188.632 86.7039 186.695 84.7671 184.306 84.7671C181.917 84.7671 179.98 86.7039 179.98 89.0931C179.98 91.4823 181.917 93.4191 184.306 93.4191Z" fill="#BF3F55"/>
        <path opacity="0.5" d="M184.306 171.287C186.695 171.287 188.632 169.35 188.632 166.961C188.632 164.572 186.695 162.635 184.306 162.635C181.917 162.635 179.98 164.572 179.98 166.961C179.98 169.35 181.917 171.287 184.306 171.287Z" fill="#BF3F55"/>
        <path opacity="0.5" d="M184.306 145.331C186.695 145.331 188.632 143.394 188.632 141.005C188.632 138.616 186.695 136.679 184.306 136.679C181.917 136.679 179.98 138.616 179.98 141.005C179.98 143.394 181.917 145.331 184.306 145.331Z" fill="#BF3F55"/>
        <path opacity="0.5" d="M184.306 223.199C186.695 223.199 188.632 221.262 188.632 218.873C188.632 216.484 186.695 214.547 184.306 214.547C181.917 214.547 179.98 216.484 179.98 218.873C179.98 221.262 181.917 223.199 184.306 223.199Z" fill="#BF3F55"/>
        <path opacity="0.5" d="M184.306 197.243C186.695 197.243 188.632 195.306 188.632 192.917C188.632 190.528 186.695 188.591 184.306 188.591C181.917 188.591 179.98 190.528 179.98 192.917C179.98 195.306 181.917 197.243 184.306 197.243Z" fill="#BF3F55"/>
        <path opacity="0.5" d="M204.494 15.5512C206.883 15.5512 208.82 13.6144 208.82 11.2252C208.82 8.83599 206.883 6.89917 204.494 6.89917C202.105 6.89917 200.168 8.83599 200.168 11.2252C200.168 13.6144 202.105 15.5512 204.494 15.5512Z" fill="#BF3F55"/>
        <path opacity="0.5" d="M204.494 67.463C206.883 67.463 208.82 65.5262 208.82 63.137C208.82 60.7479 206.883 58.811 204.494 58.811C202.105 58.811 200.168 60.7479 200.168 63.137C200.168 65.5262 202.105 67.463 204.494 67.463Z" fill="#BF3F55"/>
        <path opacity="0.5" d="M204.494 41.5072C206.883 41.5072 208.82 39.5704 208.82 37.1812C208.82 34.792 206.883 32.8552 204.494 32.8552C202.105 32.8552 200.168 34.792 200.168 37.1812C200.168 39.5704 202.105 41.5072 204.494 41.5072Z" fill="#BF3F55"/>
        <path opacity="0.5" d="M204.494 119.375C206.883 119.375 208.82 117.438 208.82 115.049C208.82 112.66 206.883 110.723 204.494 110.723C202.105 110.723 200.168 112.66 200.168 115.049C200.168 117.438 202.105 119.375 204.494 119.375Z" fill="#BF3F55"/>
        <path opacity="0.5" d="M204.494 93.4191C206.883 93.4191 208.82 91.4823 208.82 89.0931C208.82 86.7039 206.883 84.7671 204.494 84.7671C202.105 84.7671 200.168 86.7039 200.168 89.0931C200.168 91.4823 202.105 93.4191 204.494 93.4191Z" fill="#BF3F55"/>
        <path opacity="0.5" d="M204.494 171.287C206.883 171.287 208.82 169.35 208.82 166.961C208.82 164.572 206.883 162.635 204.494 162.635C202.105 162.635 200.168 164.572 200.168 166.961C200.168 169.35 202.105 171.287 204.494 171.287Z" fill="#BF3F55"/>
        <path opacity="0.5" d="M204.494 145.331C206.883 145.331 208.82 143.394 208.82 141.005C208.82 138.616 206.883 136.679 204.494 136.679C202.105 136.679 200.168 138.616 200.168 141.005C200.168 143.394 202.105 145.331 204.494 145.331Z" fill="#BF3F55"/>
        <path opacity="0.5" d="M204.494 223.199C206.883 223.199 208.82 221.262 208.82 218.873C208.82 216.484 206.883 214.547 204.494 214.547C202.105 214.547 200.168 216.484 200.168 218.873C200.168 221.262 202.105 223.199 204.494 223.199Z" fill="#BF3F55"/>
        <path opacity="0.5" d="M204.494 197.243C206.883 197.243 208.82 195.306 208.82 192.917C208.82 190.528 206.883 188.591 204.494 188.591C202.105 188.591 200.168 190.528 200.168 192.917C200.168 195.306 202.105 197.243 204.494 197.243Z" fill="#BF3F55"/>
      </g>
      <g opacity="0.5">
        <path opacity="0.5" d="M239.391 15.5512C241.78 15.5512 243.717 13.6144 243.717 11.2252C243.717 8.83599 241.78 6.89917 239.391 6.89917C237.002 6.89917 235.065 8.83599 235.065 11.2252C235.065 13.6144 237.002 15.5512 239.391 15.5512Z" fill="#BF3F55"/>
        <path opacity="0.5" d="M239.391 67.463C241.78 67.463 243.717 65.5262 243.717 63.137C243.717 60.7479 241.78 58.811 239.391 58.811C237.002 58.811 235.065 60.7479 235.065 63.137C235.065 65.5262 237.002 67.463 239.391 67.463Z" fill="#BF3F55"/>
        <path opacity="0.5" d="M239.391 41.5072C241.78 41.5072 243.717 39.5704 243.717 37.1812C243.717 34.792 241.78 32.8552 239.391 32.8552C237.002 32.8552 235.065 34.792 235.065 37.1812C235.065 39.5704 237.002 41.5072 239.391 41.5072Z" fill="#BF3F55"/>
        <path opacity="0.5" d="M239.391 119.375C241.78 119.375 243.717 117.438 243.717 115.049C243.717 112.66 241.78 110.723 239.391 110.723C237.002 110.723 235.065 112.66 235.065 115.049C235.065 117.438 237.002 119.375 239.391 119.375Z" fill="#BF3F55"/>
        <path opacity="0.5" d="M239.391 93.4191C241.78 93.4191 243.717 91.4823 243.717 89.0931C243.717 86.7039 241.78 84.7671 239.391 84.7671C237.002 84.7671 235.065 86.7039 235.065 89.0931C235.065 91.4823 237.002 93.4191 239.391 93.4191Z" fill="#BF3F55"/>
        <path opacity="0.5" d="M239.391 171.287C241.78 171.287 243.717 169.35 243.717 166.961C243.717 164.572 241.78 162.635 239.391 162.635C237.002 162.635 235.065 164.572 235.065 166.961C235.065 169.35 237.002 171.287 239.391 171.287Z" fill="#BF3F55"/>
        <path opacity="0.5" d="M239.391 145.331C241.78 145.331 243.717 143.394 243.717 141.005C243.717 138.616 241.78 136.679 239.391 136.679C237.002 136.679 235.065 138.616 235.065 141.005C235.065 143.394 237.002 145.331 239.391 145.331Z" fill="#BF3F55"/>
        <path opacity="0.5" d="M239.391 223.199C241.78 223.199 243.717 221.262 243.717 218.873C243.717 216.484 241.78 214.547 239.391 214.547C237.002 214.547 235.065 216.484 235.065 218.873C235.065 221.262 237.002 223.199 239.391 223.199Z" fill="#BF3F55"/>
        <path opacity="0.5" d="M239.391 197.243C241.78 197.243 243.717 195.306 243.717 192.917C243.717 190.528 241.78 188.591 239.391 188.591C237.002 188.591 235.065 190.528 235.065 192.917C235.065 195.306 237.002 197.243 239.391 197.243Z" fill="#BF3F55"/>
        <path opacity="0.5" d="M259.579 15.5512C261.968 15.5512 263.905 13.6144 263.905 11.2252C263.905 8.83599 261.968 6.89917 259.579 6.89917C257.19 6.89917 255.253 8.83599 255.253 11.2252C255.253 13.6144 257.19 15.5512 259.579 15.5512Z" fill="#BF3F55"/>
        <path opacity="0.5" d="M259.579 67.463C261.968 67.463 263.905 65.5262 263.905 63.137C263.905 60.7479 261.968 58.811 259.579 58.811C257.19 58.811 255.253 60.7479 255.253 63.137C255.253 65.5262 257.19 67.463 259.579 67.463Z" fill="#BF3F55"/>
        <path opacity="0.5" d="M259.579 41.5072C261.968 41.5072 263.905 39.5704 263.905 37.1812C263.905 34.792 261.968 32.8552 259.579 32.8552C257.19 32.8552 255.253 34.792 255.253 37.1812C255.253 39.5704 257.19 41.5072 259.579 41.5072Z" fill="#BF3F55"/>
        <path opacity="0.5" d="M259.579 119.375C261.968 119.375 263.905 117.438 263.905 115.049C263.905 112.66 261.968 110.723 259.579 110.723C257.19 110.723 255.253 112.66 255.253 115.049C255.253 117.438 257.19 119.375 259.579 119.375Z" fill="#BF3F55"/>
        <path opacity="0.5" d="M259.579 93.4191C261.968 93.4191 263.905 91.4823 263.905 89.0931C263.905 86.7039 261.968 84.7671 259.579 84.7671C257.19 84.7671 255.253 86.7039 255.253 89.0931C255.253 91.4823 257.19 93.4191 259.579 93.4191Z" fill="#BF3F55"/>
        <path opacity="0.5" d="M259.579 171.287C261.968 171.287 263.905 169.35 263.905 166.961C263.905 164.572 261.968 162.635 259.579 162.635C257.19 162.635 255.253 164.572 255.253 166.961C255.253 169.35 257.19 171.287 259.579 171.287Z" fill="#BF3F55"/>
        <path opacity="0.5" d="M259.579 145.331C261.968 145.331 263.905 143.394 263.905 141.005C263.905 138.616 261.968 136.679 259.579 136.679C257.19 136.679 255.253 138.616 255.253 141.005C255.253 143.394 257.19 145.331 259.579 145.331Z" fill="#BF3F55"/>
        <path opacity="0.5" d="M259.579 223.199C261.968 223.199 263.905 221.262 263.905 218.873C263.905 216.484 261.968 214.547 259.579 214.547C257.19 214.547 255.253 216.484 255.253 218.873C255.253 221.262 257.19 223.199 259.579 223.199Z" fill="#BF3F55"/>
        <path opacity="0.5" d="M259.579 197.243C261.968 197.243 263.905 195.306 263.905 192.917C263.905 190.528 261.968 188.591 259.579 188.591C257.19 188.591 255.253 190.528 255.253 192.917C255.253 195.306 257.19 197.243 259.579 197.243Z" fill="#BF3F55"/>
      </g>
      <g opacity="0.5">
        <path opacity="0.5" d="M294.475 15.5512C296.865 15.5512 298.801 13.6144 298.801 11.2252C298.801 8.83599 296.865 6.89917 294.475 6.89917C292.086 6.89917 290.149 8.83599 290.149 11.2252C290.149 13.6144 292.086 15.5512 294.475 15.5512Z" fill="#BF3F55"/>
        <path opacity="0.5" d="M294.475 67.463C296.865 67.463 298.801 65.5262 298.801 63.137C298.801 60.7479 296.865 58.811 294.475 58.811C292.086 58.811 290.149 60.7479 290.149 63.137C290.149 65.5262 292.086 67.463 294.475 67.463Z" fill="#BF3F55"/>
        <path opacity="0.5" d="M294.475 41.5072C296.865 41.5072 298.801 39.5704 298.801 37.1812C298.801 34.792 296.865 32.8552 294.475 32.8552C292.086 32.8552 290.149 34.792 290.149 37.1812C290.149 39.5704 292.086 41.5072 294.475 41.5072Z" fill="#BF3F55"/>
        <path opacity="0.5" d="M294.475 119.375C296.865 119.375 298.801 117.438 298.801 115.049C298.801 112.66 296.865 110.723 294.475 110.723C292.086 110.723 290.149 112.66 290.149 115.049C290.149 117.438 292.086 119.375 294.475 119.375Z" fill="#BF3F55"/>
        <path opacity="0.5" d="M294.475 93.4191C296.865 93.4191 298.801 91.4823 298.801 89.0931C298.801 86.7039 296.865 84.7671 294.475 84.7671C292.086 84.7671 290.149 86.7039 290.149 89.0931C290.149 91.4823 292.086 93.4191 294.475 93.4191Z" fill="#BF3F55"/>
        <path opacity="0.5" d="M294.475 171.287C296.865 171.287 298.801 169.35 298.801 166.961C298.801 164.572 296.865 162.635 294.475 162.635C292.086 162.635 290.149 164.572 290.149 166.961C290.149 169.35 292.086 171.287 294.475 171.287Z" fill="#BF3F55"/>
        <path opacity="0.5" d="M294.475 145.331C296.865 145.331 298.801 143.394 298.801 141.005C298.801 138.616 296.865 136.679 294.475 136.679C292.086 136.679 290.149 138.616 290.149 141.005C290.149 143.394 292.086 145.331 294.475 145.331Z" fill="#BF3F55"/>
        <path opacity="0.5" d="M294.475 223.199C296.865 223.199 298.801 221.262 298.801 218.873C298.801 216.484 296.865 214.547 294.475 214.547C292.086 214.547 290.149 216.484 290.149 218.873C290.149 221.262 292.086 223.199 294.475 223.199Z" fill="#BF3F55"/>
        <path opacity="0.5" d="M294.475 197.243C296.865 197.243 298.801 195.306 298.801 192.917C298.801 190.528 296.865 188.591 294.475 188.591C292.086 188.591 290.149 190.528 290.149 192.917C290.149 195.306 292.086 197.243 294.475 197.243Z" fill="#BF3F55"/>
        <path opacity="0.5" d="M314.663 15.5512C317.053 15.5512 318.989 13.6144 318.989 11.2252C318.989 8.83599 317.053 6.89917 314.663 6.89917C312.274 6.89917 310.337 8.83599 310.337 11.2252C310.337 13.6144 312.274 15.5512 314.663 15.5512Z" fill="#BF3F55"/>
        <path opacity="0.5" d="M314.663 67.463C317.053 67.463 318.989 65.5262 318.989 63.137C318.989 60.7479 317.053 58.811 314.663 58.811C312.274 58.811 310.337 60.7479 310.337 63.137C310.337 65.5262 312.274 67.463 314.663 67.463Z" fill="#BF3F55"/>
        <path opacity="0.5" d="M314.663 41.5072C317.053 41.5072 318.989 39.5704 318.989 37.1812C318.989 34.792 317.053 32.8552 314.663 32.8552C312.274 32.8552 310.337 34.792 310.337 37.1812C310.337 39.5704 312.274 41.5072 314.663 41.5072Z" fill="#BF3F55"/>
        <path opacity="0.5" d="M314.663 119.375C317.053 119.375 318.989 117.438 318.989 115.049C318.989 112.66 317.053 110.723 314.663 110.723C312.274 110.723 310.337 112.66 310.337 115.049C310.337 117.438 312.274 119.375 314.663 119.375Z" fill="#BF3F55"/>
        <path opacity="0.5" d="M314.663 93.4191C317.053 93.4191 318.989 91.4823 318.989 89.0931C318.989 86.7039 317.053 84.7671 314.663 84.7671C312.274 84.7671 310.337 86.7039 310.337 89.0931C310.337 91.4823 312.274 93.4191 314.663 93.4191Z" fill="#BF3F55"/>
        <path opacity="0.5" d="M314.663 171.287C317.053 171.287 318.989 169.35 318.989 166.961C318.989 164.572 317.053 162.635 314.663 162.635C312.274 162.635 310.337 164.572 310.337 166.961C310.337 169.35 312.274 171.287 314.663 171.287Z" fill="#BF3F55"/>
        <path opacity="0.5" d="M314.663 145.331C317.053 145.331 318.989 143.394 318.989 141.005C318.989 138.616 317.053 136.679 314.663 136.679C312.274 136.679 310.337 138.616 310.337 141.005C310.337 143.394 312.274 145.331 314.663 145.331Z" fill="#BF3F55"/>
        <path opacity="0.5" d="M314.663 223.199C317.053 223.199 318.989 221.262 318.989 218.873C318.989 216.484 317.053 214.547 314.663 214.547C312.274 214.547 310.337 216.484 310.337 218.873C310.337 221.262 312.274 223.199 314.663 223.199Z" fill="#BF3F55"/>
        <path opacity="0.5" d="M314.663 197.243C317.053 197.243 318.989 195.306 318.989 192.917C318.989 190.528 317.053 188.591 314.663 188.591C312.274 188.591 310.337 190.528 310.337 192.917C310.337 195.306 312.274 197.243 314.663 197.243Z" fill="#BF3F55"/>
      </g>
      <g opacity="0.5">
        <path opacity="0.5" d="M349.848 15.5512C352.237 15.5512 354.174 13.6144 354.174 11.2252C354.174 8.83599 352.237 6.89917 349.848 6.89917C347.459 6.89917 345.522 8.83599 345.522 11.2252C345.522 13.6144 347.459 15.5512 349.848 15.5512Z" fill="#BF3F55"/>
        <path opacity="0.5" d="M349.848 67.463C352.237 67.463 354.174 65.5262 354.174 63.137C354.174 60.7479 352.237 58.811 349.848 58.811C347.459 58.811 345.522 60.7479 345.522 63.137C345.522 65.5262 347.459 67.463 349.848 67.463Z" fill="#BF3F55"/>
        <path opacity="0.5" d="M349.848 41.5072C352.237 41.5072 354.174 39.5704 354.174 37.1812C354.174 34.792 352.237 32.8552 349.848 32.8552C347.459 32.8552 345.522 34.792 345.522 37.1812C345.522 39.5704 347.459 41.5072 349.848 41.5072Z" fill="#BF3F55"/>
        <path opacity="0.5" d="M349.848 119.375C352.237 119.375 354.174 117.438 354.174 115.049C354.174 112.66 352.237 110.723 349.848 110.723C347.459 110.723 345.522 112.66 345.522 115.049C345.522 117.438 347.459 119.375 349.848 119.375Z" fill="#BF3F55"/>
        <path opacity="0.5" d="M349.848 93.4191C352.237 93.4191 354.174 91.4823 354.174 89.0931C354.174 86.7039 352.237 84.7671 349.848 84.7671C347.459 84.7671 345.522 86.7039 345.522 89.0931C345.522 91.4823 347.459 93.4191 349.848 93.4191Z" fill="#BF3F55"/>
        <path opacity="0.5" d="M349.848 171.287C352.237 171.287 354.174 169.35 354.174 166.961C354.174 164.572 352.237 162.635 349.848 162.635C347.459 162.635 345.522 164.572 345.522 166.961C345.522 169.35 347.459 171.287 349.848 171.287Z" fill="#BF3F55"/>
        <path opacity="0.5" d="M349.848 145.331C352.237 145.331 354.174 143.394 354.174 141.005C354.174 138.616 352.237 136.679 349.848 136.679C347.459 136.679 345.522 138.616 345.522 141.005C345.522 143.394 347.459 145.331 349.848 145.331Z" fill="#BF3F55"/>
        <path opacity="0.5" d="M349.848 223.199C352.237 223.199 354.174 221.262 354.174 218.873C354.174 216.484 352.237 214.547 349.848 214.547C347.459 214.547 345.522 216.484 345.522 218.873C345.522 221.262 347.459 223.199 349.848 223.199Z" fill="#BF3F55"/>
        <path opacity="0.5" d="M349.848 197.243C352.237 197.243 354.174 195.306 354.174 192.917C354.174 190.528 352.237 188.591 349.848 188.591C347.459 188.591 345.522 190.528 345.522 192.917C345.522 195.306 347.459 197.243 349.848 197.243Z" fill="#BF3F55"/>
        <path opacity="0.5" d="M369.747 15.5512C372.137 15.5512 374.073 13.6144 374.073 11.2252C374.073 8.83599 372.137 6.89917 369.747 6.89917C367.358 6.89917 365.421 8.83599 365.421 11.2252C365.421 13.6144 367.358 15.5512 369.747 15.5512Z" fill="#BF3F55"/>
        <path opacity="0.5" d="M369.747 67.463C372.137 67.463 374.073 65.5262 374.073 63.137C374.073 60.7479 372.137 58.811 369.747 58.811C367.358 58.811 365.421 60.7479 365.421 63.137C365.421 65.5262 367.358 67.463 369.747 67.463Z" fill="#BF3F55"/>
        <path opacity="0.5" d="M369.747 41.5072C372.137 41.5072 374.073 39.5704 374.073 37.1812C374.073 34.792 372.137 32.8552 369.747 32.8552C367.358 32.8552 365.421 34.792 365.421 37.1812C365.421 39.5704 367.358 41.5072 369.747 41.5072Z" fill="#BF3F55"/>
        <path opacity="0.5" d="M369.747 119.375C372.137 119.375 374.073 117.438 374.073 115.049C374.073 112.66 372.137 110.723 369.747 110.723C367.358 110.723 365.421 112.66 365.421 115.049C365.421 117.438 367.358 119.375 369.747 119.375Z" fill="#BF3F55"/>
        <path opacity="0.5" d="M369.747 93.4191C372.137 93.4191 374.073 91.4823 374.073 89.0931C374.073 86.7039 372.137 84.7671 369.747 84.7671C367.358 84.7671 365.421 86.7039 365.421 89.0931C365.421 91.4823 367.358 93.4191 369.747 93.4191Z" fill="#BF3F55"/>
        <path opacity="0.5" d="M369.747 171.287C372.137 171.287 374.073 169.35 374.073 166.961C374.073 164.572 372.137 162.635 369.747 162.635C367.358 162.635 365.421 164.572 365.421 166.961C365.421 169.35 367.358 171.287 369.747 171.287Z" fill="#BF3F55"/>
        <path opacity="0.5" d="M369.747 145.331C372.137 145.331 374.073 143.394 374.073 141.005C374.073 138.616 372.137 136.679 369.747 136.679C367.358 136.679 365.421 138.616 365.421 141.005C365.421 143.394 367.358 145.331 369.747 145.331Z" fill="#BF3F55"/>
        <path opacity="0.5" d="M369.747 223.199C372.137 223.199 374.073 221.262 374.073 218.873C374.073 216.484 372.137 214.547 369.747 214.547C367.358 214.547 365.421 216.484 365.421 218.873C365.421 221.262 367.358 223.199 369.747 223.199Z" fill="#BF3F55"/>
        <path opacity="0.5" d="M369.747 197.243C372.137 197.243 374.073 195.306 374.073 192.917C374.073 190.528 372.137 188.591 369.747 188.591C367.358 188.591 365.421 190.528 365.421 192.917C365.421 195.306 367.358 197.243 369.747 197.243Z" fill="#BF3F55"/>
      </g>
      <g opacity="0.5">
        <path opacity="0.5" d="M404.932 15.5512C407.321 15.5512 409.258 13.6144 409.258 11.2252C409.258 8.83599 407.321 6.89917 404.932 6.89917C402.543 6.89917 400.606 8.83599 400.606 11.2252C400.606 13.6144 402.543 15.5512 404.932 15.5512Z" fill="#BF3F55"/>
        <path opacity="0.5" d="M404.932 67.463C407.321 67.463 409.258 65.5262 409.258 63.137C409.258 60.7479 407.321 58.811 404.932 58.811C402.543 58.811 400.606 60.7479 400.606 63.137C400.606 65.5262 402.543 67.463 404.932 67.463Z" fill="#BF3F55"/>
        <path opacity="0.5" d="M404.932 41.5072C407.321 41.5072 409.258 39.5704 409.258 37.1812C409.258 34.792 407.321 32.8552 404.932 32.8552C402.543 32.8552 400.606 34.792 400.606 37.1812C400.606 39.5704 402.543 41.5072 404.932 41.5072Z" fill="#BF3F55"/>
        <path opacity="0.5" d="M404.932 119.375C407.321 119.375 409.258 117.438 409.258 115.049C409.258 112.66 407.321 110.723 404.932 110.723C402.543 110.723 400.606 112.66 400.606 115.049C400.606 117.438 402.543 119.375 404.932 119.375Z" fill="#BF3F55"/>
        <path opacity="0.5" d="M404.932 93.4191C407.321 93.4191 409.258 91.4823 409.258 89.0931C409.258 86.7039 407.321 84.7671 404.932 84.7671C402.543 84.7671 400.606 86.7039 400.606 89.0931C400.606 91.4823 402.543 93.4191 404.932 93.4191Z" fill="#BF3F55"/>
        <path opacity="0.5" d="M404.932 171.287C407.321 171.287 409.258 169.35 409.258 166.961C409.258 164.572 407.321 162.635 404.932 162.635C402.543 162.635 400.606 164.572 400.606 166.961C400.606 169.35 402.543 171.287 404.932 171.287Z" fill="#BF3F55"/>
        <path opacity="0.5" d="M404.932 145.331C407.321 145.331 409.258 143.394 409.258 141.005C409.258 138.616 407.321 136.679 404.932 136.679C402.543 136.679 400.606 138.616 400.606 141.005C400.606 143.394 402.543 145.331 404.932 145.331Z" fill="#BF3F55"/>
        <path opacity="0.5" d="M404.932 223.199C407.321 223.199 409.258 221.262 409.258 218.873C409.258 216.484 407.321 214.547 404.932 214.547C402.543 214.547 400.606 216.484 400.606 218.873C400.606 221.262 402.543 223.199 404.932 223.199Z" fill="#BF3F55"/>
        <path opacity="0.5" d="M404.932 197.243C407.321 197.243 409.258 195.306 409.258 192.917C409.258 190.528 407.321 188.591 404.932 188.591C402.543 188.591 400.606 190.528 400.606 192.917C400.606 195.306 402.543 197.243 404.932 197.243Z" fill="#BF3F55"/>
        <path opacity="0.5" d="M425.12 15.5512C427.509 15.5512 429.446 13.6144 429.446 11.2252C429.446 8.83599 427.509 6.89917 425.12 6.89917C422.731 6.89917 420.794 8.83599 420.794 11.2252C420.794 13.6144 422.731 15.5512 425.12 15.5512Z" fill="#BF3F55"/>
        <path opacity="0.5" d="M425.12 67.463C427.509 67.463 429.446 65.5262 429.446 63.137C429.446 60.7479 427.509 58.811 425.12 58.811C422.731 58.811 420.794 60.7479 420.794 63.137C420.794 65.5262 422.731 67.463 425.12 67.463Z" fill="#BF3F55"/>
        <path opacity="0.5" d="M425.12 41.5072C427.509 41.5072 429.446 39.5704 429.446 37.1812C429.446 34.792 427.509 32.8552 425.12 32.8552C422.731 32.8552 420.794 34.792 420.794 37.1812C420.794 39.5704 422.731 41.5072 425.12 41.5072Z" fill="#BF3F55"/>
        <path opacity="0.5" d="M425.12 119.375C427.509 119.375 429.446 117.438 429.446 115.049C429.446 112.66 427.509 110.723 425.12 110.723C422.731 110.723 420.794 112.66 420.794 115.049C420.794 117.438 422.731 119.375 425.12 119.375Z" fill="#BF3F55"/>
        <path opacity="0.5" d="M425.12 93.4191C427.509 93.4191 429.446 91.4823 429.446 89.0931C429.446 86.7039 427.509 84.7671 425.12 84.7671C422.731 84.7671 420.794 86.7039 420.794 89.0931C420.794 91.4823 422.731 93.4191 425.12 93.4191Z" fill="#BF3F55"/>
        <path opacity="0.5" d="M425.12 171.287C427.509 171.287 429.446 169.35 429.446 166.961C429.446 164.572 427.509 162.635 425.12 162.635C422.731 162.635 420.794 164.572 420.794 166.961C420.794 169.35 422.731 171.287 425.12 171.287Z" fill="#BF3F55"/>
        <path opacity="0.5" d="M425.12 145.331C427.509 145.331 429.446 143.394 429.446 141.005C429.446 138.616 427.509 136.679 425.12 136.679C422.731 136.679 420.794 138.616 420.794 141.005C420.794 143.394 422.731 145.331 425.12 145.331Z" fill="#BF3F55"/>
        <path opacity="0.5" d="M425.12 223.199C427.509 223.199 429.446 221.262 429.446 218.873C429.446 216.484 427.509 214.547 425.12 214.547C422.731 214.547 420.794 216.484 420.794 218.873C420.794 221.262 422.731 223.199 425.12 223.199Z" fill="#BF3F55"/>
        <path opacity="0.5" d="M425.12 197.243C427.509 197.243 429.446 195.306 429.446 192.917C429.446 190.528 427.509 188.591 425.12 188.591C422.731 188.591 420.794 190.528 420.794 192.917C420.794 195.306 422.731 197.243 425.12 197.243Z" fill="#BF3F55"/>
      </g>
    </g>
    <g opacity="0.7">
      <path opacity="0.7" d="M230.162 853.352C68.0811 853.352 -64.0061 722.13 -64.0061 560.915C-64.0061 399.699 67.7927 268.477 230.162 268.477C392.531 268.477 524.33 399.699 524.33 560.915C524.042 722.13 392.243 853.352 230.162 853.352ZM230.162 271.361C69.5231 271.361 -61.1221 401.141 -61.1221 560.915C-61.1221 720.688 69.5231 850.468 230.162 850.468C390.801 850.468 521.446 720.688 521.446 560.915C521.446 401.141 390.512 271.361 230.162 271.361Z" fill="url(#paint2_linear)"/>
    </g>
  </g>
  <defs>
    <linearGradient id="paint0_linear" x1="63.943" y1="710.375" x2="1301.98" y2="-136.813" gradientUnits="userSpaceOnUse">
      <stop offset="0.000382639" stop-color="#5B1316"/>
      <stop offset="0.8922" stop-color="#9C1C24"/>
    </linearGradient>
    <linearGradient id="paint1_linear" x1="525.406" y1="513.085" x2="1207.56" y2="513.085" gradientUnits="userSpaceOnUse">
      <stop stop-color="#7B2326"/>
      <stop offset="0.9992" stop-color="#AA1C24"/>
    </linearGradient>
    <linearGradient id="paint2_linear" x1="-12.165" y1="726.623" x2="472.234" y2="395.149" gradientUnits="userSpaceOnUse">
      <stop stop-color="#732326" stop-opacity="0"/>
      <stop offset="1" stop-color="#BA1A24"/>
    </linearGradient>
  </defs>
</svg>